<svg width="766" height="372" viewBox="0 0 766 372" fill="none" xmlns="http://www.w3.org/2000/svg">
<path d="M80.629 254.44H52.8846C45.9414 254.44 42.4734 258.143 42.4734 265.549C42.4734 265.955 42.5304 266.567 42.6443 267.386H29.0855C29.0285 266.977 29 266.364 29 265.549C29 258.086 31.9482 251.933 37.8446 247.091C37.0256 244.527 36.6197 242.049 36.6197 239.656C36.6197 233.059 38.9484 227.429 43.6128 222.765C48.2843 218.094 53.9137 215.758 60.5044 215.758C65.6388 215.758 70.2498 217.189 74.3338 220.045L67.412 231.866C65.3682 230.121 63.068 229.245 60.5044 229.245C53.5612 229.245 50.0931 232.717 50.0931 239.656C50.0931 240.294 50.1786 240.935 50.3495 241.579H80.629V254.44Z" fill="white"/>
<path d="M77.126 254.435V241.574H99.7003V254.435H77.126Z" fill="white"/>
<path d="M96.2012 254.435V241.574H118.776V254.435H96.2012Z" fill="white"/>
<path d="M186.86 254.434H115.277V241.573H121.573V195.371H134.448V218.387C137.941 216.574 141.412 215.666 144.859 215.666H180.565V241.573H186.86V254.434ZM167.69 229.054L145.557 229.14C138.614 229.14 135.146 232.615 135.146 239.565C135.146 240.088 135.203 240.758 135.317 241.573H167.69V229.054Z" fill="white"/>
<path d="M211.628 208.317H197.442V195.371H211.628V208.317ZM230.001 208.317H215.829V195.371H230.001V208.317ZM243.645 254.434H183.356V241.573H189.652L189.566 239.565C189.338 233.206 191.674 227.573 196.573 222.674C201.234 218.002 206.892 215.666 213.551 215.666C220.138 215.666 225.771 218.002 230.442 222.674C235.341 227.573 237.67 233.206 237.435 239.565L237.35 241.573H243.645V254.434ZM203.31 241.573H223.705C223.819 240.758 223.876 240.088 223.876 239.565C223.876 232.615 220.433 229.14 213.551 229.14C206.607 229.14 203.139 232.615 203.139 239.565C203.139 239.974 203.196 240.644 203.31 241.573Z" fill="white"/>
<path d="M240.148 254.434V241.573H246.543V195.371H259.233V254.434H240.148Z" fill="white"/>
<path d="M266.318 254.434V195.371H279.008V254.434H266.318Z" fill="white"/>
<path d="M342.801 254.435H334.925C334.572 260.445 332.293 265.152 328.088 268.563C323.89 271.982 318.236 273.513 311.125 273.164L309.288 273.078L304.118 260.303C308.142 260.417 311.873 259.594 315.313 257.839C318.759 256.091 320.483 254.022 320.483 251.629V215.582H335.01V241.574H342.801V254.435Z" fill="white"/>
<path d="M339.295 254.435V241.574H361.869V254.435H339.295Z" fill="white"/>
<path d="M358.368 254.435V241.574H380.942V254.435H358.368Z" fill="white"/>
<path d="M377.444 254.435V241.574H400.019V254.435H377.444Z" fill="white"/>
<path d="M455.501 241.574V254.435H396.522V241.574H436.515V241.403C436.515 232.651 432.107 228.272 423.298 228.272C418.748 228.272 415.159 230.166 412.531 233.955L402.917 225.737C408.102 218.968 414.895 215.582 423.298 215.582C430.534 215.582 436.629 218.124 441.586 223.202C446.606 228.215 449.12 234.282 449.12 241.403V241.574H455.501Z" fill="white"/>
<path d="M452 254.435V241.574H457.782V215.582H471.868V254.435H452ZM471.868 276.568H457.683V263.621H471.868V276.568Z" fill="white"/>
<path d="M520.874 208.317H506.689V195.371H520.874V208.317ZM539.247 208.317H525.076V195.371H539.247V208.317ZM551.054 254.434H502.06C499.258 250.24 497.858 245.953 497.858 241.573V240.605C497.858 233.722 500.308 227.829 505.208 222.93C510.107 218.031 515.996 215.581 522.882 215.581C526.034 215.581 529.01 216.136 531.812 217.247V215.666H544.759V241.573H551.054V254.434ZM531.812 241.573V232.558C529.477 229.873 526.5 228.527 522.882 228.527C514.828 228.527 510.805 232.554 510.805 240.605L510.89 241.573H531.812Z" fill="white"/>
<path d="M547.557 254.435V241.574H570.131V254.435H547.557Z" fill="white"/>
<path d="M566.634 254.435V241.574H589.208V254.435H566.634Z" fill="white"/>
<path d="M585.71 254.431V241.571H623.951C624.065 240.755 624.122 240.114 624.122 239.648C624.122 232.708 620.65 229.237 613.711 229.237L592.005 229.137V215.578H592.276L630.161 193.09L637.254 207.005L619.052 216.362C631.592 219.164 637.809 226.926 637.695 239.648L637.61 254.431H585.71Z" fill="white"/>
<path d="M681.622 254.435H673.746C673.393 260.445 671.115 265.152 666.91 268.563C662.712 271.982 657.057 273.513 649.947 273.164L648.109 273.078L642.939 260.303C646.963 260.417 650.694 259.594 654.134 257.839C657.581 256.091 659.304 254.022 659.304 251.629V215.582H673.831V241.574H681.622V254.435Z" fill="white"/>
<path d="M718.464 189.946H704.279V177H718.464V189.946ZM708.751 208.319H694.565V195.373H708.751V208.319ZM727.736 208.319H713.551V195.373H727.736V208.319ZM678.115 241.575H684.41L684.51 222.59H697.2V241.575H704.193L704.279 218.388H716.969V241.575H723.791V215.582H736.481V254.435H678.115V241.575Z" fill="white"/>
<path d="M331 61.5068V38.0068C331 38.0068 356.29 32.8746 371.5 41.5047C384.022 48.6094 389.442 62.3594 391.638 70.5044C392.791 74.7806 392.775 79.2682 393.613 83.617C395 90.8074 399.436 101.542 413.5 103.504C421.661 104.643 434 99.0068 434 99.0068V124.506C434 124.506 401 131.506 384 112.006C377.915 105.026 374.597 96.6662 372.937 91.2285C371.79 87.4691 371.613 83.5145 371.014 79.63C369.801 71.7739 365.588 58.5907 351 56.5057C342.928 55.3519 331 61.5068 331 61.5068Z" fill="white"/>
<path d="M302 35.5L323 15V76.8617C323 82.5814 323.713 88.3964 326.544 93.3664C327.421 94.9064 328.422 96.3868 329.5 97.5C334.057 102.204 338.004 104.164 344.5 105C353.32 106.135 366 97.5 366 97.5C366 97.5 369.5 111 377.5 116L364 127.5C364 127.5 358.005 119.988 352.5 118.5C346.982 117.008 332.5 122 338 120.5C343.5 119 349 120.5 349 120.5L339.5 130L325.5 125.5C325.5 125.5 327.399 117.208 325.5 112.5C323.116 106.587 309.5 100 313 102C316.5 104 322 112 320.5 110C319 108 306.5 110 306.5 110L300.5 97.5C300.5 97.5 307.018 90.9338 308.5 85.5C309.733 80.9788 308 68 308.5 73.5C309 79 306.5 83.5 306.5 83.5L296 73.5C296 73.5 300.447 66.1873 302 61C304.856 51.4601 302 35.5 302 35.5Z" fill="#D5D5D5"/>
<path d="M462.5 124.5L441.5 145V83.1383C441.5 77.4186 440.787 71.6036 437.956 66.6336C437.079 65.0936 436.078 63.6132 435 62.5C430.443 57.7956 426.496 55.8361 420 55C411.18 53.8648 398.5 62.5 398.5 62.5C398.5 62.5 395 49 387 44L400.5 32.5C400.5 32.5 406.495 40.012 412 41.5C417.518 42.9915 432 38 426.5 39.5C421 41 415.5 39.5 415.5 39.5L425 30L439 34.5C439 34.5 437.101 42.7915 439 47.5C441.384 53.4127 455 60 451.5 58C448 56 442.5 48 444 50C445.5 52 458 50 458 50L464 62.5C464 62.5 457.482 69.0662 456 74.5C454.767 79.0212 456.5 92 456 86.5C455.5 81 458 76.5 458 76.5L468.5 86.5C468.5 86.5 464.053 93.8127 462.5 99C459.644 108.54 462.5 124.5 462.5 124.5Z" fill="#D5D5D5"/>
<path d="M43.0672 342V299.3H63.9292C67.1418 299.3 69.8258 299.727 71.9812 300.581C74.1772 301.394 75.8242 302.594 76.9222 304.18C78.0202 305.766 78.5692 307.718 78.5692 310.036C78.5692 312.313 77.8575 314.265 76.4342 315.892C75.0515 317.519 73.0385 318.678 70.3952 319.369L70.6392 318.149C72.5098 318.556 74.2178 319.247 75.7632 320.223C77.3085 321.158 78.5285 322.399 79.4232 323.944C80.3585 325.489 80.8262 327.319 80.8262 329.434C80.8262 331.711 80.3992 333.663 79.5452 335.29C78.7318 336.876 77.5932 338.157 76.1292 339.133C74.6652 340.109 72.9775 340.841 71.0662 341.329C69.1955 341.776 67.2028 342 65.0882 342H43.0672ZM49.6552 335.656H65.0882C66.9182 335.656 68.5042 335.432 69.8462 334.985C71.1882 334.497 72.2252 333.785 72.9572 332.85C73.7298 331.874 74.1162 330.695 74.1162 329.312C74.1162 327.848 73.6688 326.669 72.7742 325.774C71.8795 324.879 70.7205 324.229 69.2972 323.822C67.8738 323.375 66.3692 323.151 64.7832 323.151H49.6552V335.656ZM49.6552 316.807H64.4782C65.8202 316.807 67.0605 316.583 68.1992 316.136C69.3378 315.648 70.2325 314.977 70.8832 314.123C71.5338 313.269 71.8592 312.273 71.8592 311.134C71.8592 309.263 71.1068 307.881 69.6022 306.986C68.0975 306.091 66.1455 305.644 63.7462 305.644H49.6552V316.807ZM90.3679 342L109.278 299.3H116.537L135.386 342H128.249L115.927 314.184C115.642 313.655 115.317 312.944 114.951 312.049C114.626 311.154 114.26 310.219 113.853 309.243C113.487 308.226 113.121 307.25 112.755 306.315C112.43 305.339 112.145 304.505 111.901 303.814L113.609 303.753C113.284 304.607 112.938 305.502 112.572 306.437C112.247 307.372 111.901 308.328 111.535 309.304C111.169 310.239 110.803 311.154 110.437 312.049C110.071 312.903 109.725 313.696 109.4 314.428L97.1999 342H90.3679ZM98.6639 331.752L101.165 325.408H123.918L125.748 331.752H98.6639ZM180.725 342V299.3H187.313V342H180.725ZM148.09 342V299.3H154.678V342H148.09ZM150.957 324.005L151.018 317.661H183.653V324.005H150.957ZM204.979 342V299.3H226.939C229.42 299.3 231.697 299.89 233.771 301.069C235.845 302.248 237.513 303.855 238.773 305.888C240.034 307.881 240.664 310.138 240.664 312.659C240.664 315.099 239.993 317.356 238.651 319.43C237.35 321.463 235.601 323.09 233.405 324.31C231.25 325.53 228.871 326.14 226.268 326.14H211.567V342H204.979ZM234.686 342L221.754 322.724L228.647 321.199L242.799 342.061L234.686 342ZM211.567 319.796H226.207C227.59 319.796 228.851 319.471 229.989 318.82C231.128 318.169 232.043 317.295 232.734 316.197C233.426 315.099 233.771 313.899 233.771 312.598C233.771 311.256 233.385 310.077 232.612 309.06C231.88 308.003 230.884 307.169 229.623 306.559C228.363 305.949 226.96 305.644 225.414 305.644H211.567V319.796ZM277.24 342L296.15 299.3H303.409L322.258 342H315.121L302.799 314.184C302.514 313.655 302.189 312.944 301.823 312.049C301.498 311.154 301.132 310.219 300.725 309.243C300.359 308.226 299.993 307.25 299.627 306.315C299.302 305.339 299.017 304.505 298.773 303.814L300.481 303.753C300.156 304.607 299.81 305.502 299.444 306.437C299.119 307.372 298.773 308.328 298.407 309.304C298.041 310.239 297.675 311.154 297.309 312.049C296.943 312.903 296.597 313.696 296.272 314.428L284.072 342H277.24ZM285.536 331.752L288.037 325.408H310.79L312.62 331.752H285.536ZM334.962 342V299.3H341.55V335.656H366.316V342H334.962ZM415.243 348.71L399.078 327.543L404.507 324.31L420.489 345.294L415.243 348.71ZM400.908 342.61C397.492 342.61 394.341 342.061 391.453 340.963C388.607 339.824 386.106 338.259 383.95 336.266C381.836 334.273 380.189 331.955 379.009 329.312C377.871 326.628 377.301 323.741 377.301 320.65C377.301 317.559 377.871 314.692 379.009 312.049C380.189 309.365 381.836 307.027 383.95 305.034C386.106 303.041 388.607 301.496 391.453 300.398C394.341 299.259 397.492 298.69 400.908 298.69C404.365 298.69 407.517 299.239 410.363 300.337C413.251 301.435 415.752 303.001 417.866 305.034C420.022 307.027 421.669 309.365 422.807 312.049C423.987 314.692 424.576 317.559 424.576 320.65C424.576 323.741 423.987 326.628 422.807 329.312C421.669 331.955 420.022 334.294 417.866 336.327C415.752 338.32 413.251 339.865 410.363 340.963C407.517 342.061 404.365 342.61 400.908 342.61ZM400.969 336.205C403.45 336.205 405.707 335.819 407.74 335.046C409.814 334.233 411.604 333.135 413.108 331.752C414.613 330.329 415.772 328.682 416.585 326.811C417.439 324.9 417.866 322.846 417.866 320.65C417.866 318.454 417.439 316.421 416.585 314.55C415.772 312.639 414.613 310.992 413.108 309.609C411.604 308.186 409.814 307.088 407.74 306.315C405.666 305.502 403.409 305.095 400.969 305.095C398.489 305.095 396.211 305.502 394.137 306.315C392.063 307.088 390.254 308.165 388.708 309.548C387.204 310.931 386.045 312.578 385.231 314.489C384.418 316.36 384.011 318.413 384.011 320.65C384.011 322.846 384.418 324.9 385.231 326.811C386.045 328.722 387.204 330.369 388.708 331.752C390.254 333.135 392.063 334.233 394.137 335.046C396.211 335.819 398.489 336.205 400.969 336.205ZM432.897 342L451.807 299.3H459.066L477.915 342H470.778L458.456 314.184C458.172 313.655 457.846 312.944 457.48 312.049C457.155 311.154 456.789 310.219 456.382 309.243C456.016 308.226 455.65 307.25 455.284 306.315C454.959 305.339 454.674 304.505 454.43 303.814L456.138 303.753C455.813 304.607 455.467 305.502 455.101 306.437C454.776 307.372 454.43 308.328 454.064 309.304C453.698 310.239 453.332 311.154 452.966 312.049C452.6 312.903 452.255 313.696 451.929 314.428L439.729 342H432.897ZM441.193 331.752L443.694 325.408H466.447L468.277 331.752H441.193ZM497.463 342V305.644H483.067V299.3H518.752V305.644H504.051V342H497.463ZM523.861 342L542.771 299.3H550.03L568.879 342H561.742L549.42 314.184C549.135 313.655 548.81 312.944 548.444 312.049C548.119 311.154 547.753 310.219 547.346 309.243C546.98 308.226 546.614 307.25 546.248 306.315C545.923 305.339 545.638 304.505 545.394 303.814L547.102 303.753C546.777 304.607 546.431 305.502 546.065 306.437C545.74 307.372 545.394 308.328 545.028 309.304C544.662 310.239 544.296 311.154 543.93 312.049C543.564 312.903 543.218 313.696 542.893 314.428L530.693 342H523.861ZM532.157 331.752L534.658 325.408H557.411L559.241 331.752H532.157ZM625.23 342.61C622.018 342.61 619.029 342.102 616.263 341.085C613.498 340.028 611.078 338.523 609.004 336.571C606.93 334.619 605.324 332.301 604.185 329.617C603.047 326.892 602.477 323.903 602.477 320.65C602.477 317.559 603.087 314.692 604.307 312.049C605.527 309.406 607.195 307.108 609.309 305.156C611.424 303.163 613.864 301.638 616.629 300.581C619.395 299.483 622.343 298.934 625.474 298.934C627.914 298.934 630.273 299.28 632.55 299.971C634.868 300.622 636.942 301.496 638.772 302.594C640.643 303.692 642.148 304.892 643.286 306.193L639.138 311.317C637.796 310.097 636.393 309.06 634.929 308.206C633.465 307.311 631.92 306.64 630.293 306.193C628.667 305.705 626.938 305.461 625.108 305.461C623.034 305.461 621.042 305.827 619.13 306.559C617.219 307.291 615.511 308.328 614.006 309.67C612.542 310.971 611.363 312.557 610.468 314.428C609.614 316.299 609.187 318.373 609.187 320.65C609.187 323.09 609.614 325.266 610.468 327.177C611.363 329.088 612.583 330.715 614.128 332.057C615.714 333.358 617.504 334.355 619.496 335.046C621.53 335.737 623.685 336.083 625.962 336.083C627.955 336.083 629.765 335.839 631.391 335.351C633.018 334.822 634.502 334.151 635.844 333.338C637.186 332.484 638.406 331.61 639.504 330.715L642.737 336.144C641.68 337.161 640.236 338.177 638.406 339.194C636.617 340.17 634.584 340.983 632.306 341.634C630.07 342.285 627.711 342.61 625.23 342.61ZM677.791 342.61C674.375 342.61 671.224 342.061 668.336 340.963C665.49 339.824 662.989 338.259 660.833 336.266C658.719 334.273 657.072 331.955 655.892 329.312C654.754 326.628 654.184 323.741 654.184 320.65C654.184 317.559 654.754 314.692 655.892 312.049C657.072 309.365 658.719 307.027 660.833 305.034C662.989 303.041 665.49 301.496 668.336 300.398C671.224 299.259 674.375 298.69 677.791 298.69C681.248 298.69 684.4 299.239 687.246 300.337C690.134 301.435 692.635 303.001 694.749 305.034C696.905 307.027 698.552 309.365 699.69 312.049C700.87 314.692 701.459 317.559 701.459 320.65C701.459 323.741 700.87 326.628 699.69 329.312C698.552 331.955 696.905 334.294 694.749 336.327C692.635 338.32 690.134 339.865 687.246 340.963C684.4 342.061 681.248 342.61 677.791 342.61ZM677.852 336.205C680.333 336.205 682.59 335.819 684.623 335.046C686.697 334.233 688.487 333.135 689.991 331.752C691.496 330.329 692.655 328.682 693.468 326.811C694.322 324.9 694.749 322.846 694.749 320.65C694.749 318.454 694.322 316.421 693.468 314.55C692.655 312.639 691.496 310.992 689.991 309.609C688.487 308.186 686.697 307.088 684.623 306.315C682.549 305.502 680.292 305.095 677.852 305.095C675.372 305.095 673.094 305.502 671.02 306.315C668.946 307.088 667.137 308.165 665.591 309.548C664.087 310.931 662.928 312.578 662.114 314.489C661.301 316.36 660.894 318.413 660.894 320.65C660.894 322.846 661.301 324.9 662.114 326.811C662.928 328.722 664.087 330.369 665.591 331.752C667.137 333.135 668.946 334.233 671.02 335.046C673.094 335.819 675.372 336.205 677.852 336.205ZM718.381 342.671C716.551 342.671 715.189 342.264 714.294 341.451C713.399 340.638 712.952 339.519 712.952 338.096C712.952 336.876 713.399 335.819 714.294 334.924C715.229 333.989 716.592 333.521 718.381 333.521C720.17 333.521 721.512 333.928 722.407 334.741C723.302 335.554 723.749 336.673 723.749 338.096C723.749 339.316 723.281 340.394 722.346 341.329C721.451 342.224 720.13 342.671 718.381 342.671Z" fill="#D5D5D5"/>
</svg>
